<svg width="22" height="21" viewBox="0 0 22 21" fill="none" xmlns="http://www.w3.org/2000/svg">
<path d="M9.10053 1.5153C9.70434 -0.316565 12.2957 -0.316565 12.8995 1.5153L14.0882 5.12155C14.3584 5.94148 15.1243 6.49545 15.9876 6.49545H19.7725C21.7169 6.49545 22.5179 8.98931 20.9371 10.1215L17.9246 12.2789C17.2136 12.7882 16.9159 13.7004 17.1897 14.531L18.352 18.0571C18.9577 19.8947 16.861 21.4358 15.288 20.3092L12.1645 18.0723C11.4683 17.5736 10.5318 17.5736 9.83548 18.0723L6.71204 20.3092C5.13902 21.4358 3.04235 19.8947 3.64805 18.0571L4.81031 14.531C5.08411 13.7004 4.78642 12.7882 4.07536 12.2789L1.06294 10.1215C-0.517859 8.98931 0.283062 6.49545 2.22746 6.49545H6.01237C6.8757 6.49545 7.64158 5.94148 7.91184 5.12155L9.10053 1.5153Z" fill="#D9D9D9"/>
</svg>
