<svg width="63" height="63" viewBox="0 0 63 63" fill="none" xmlns="http://www.w3.org/2000/svg">
<path d="M25.7782 4.64737C27.1779 -1.54912 36.007 -1.54912 37.4066 4.64737C38.3138 8.66332 42.9223 10.5722 46.4035 8.37397C51.7748 4.98213 58.0179 11.2252 54.626 16.5965C52.4278 20.0777 54.3367 24.6862 58.3526 25.5934C64.5491 26.993 64.5491 35.8221 58.3526 37.2218C54.3367 38.1289 52.4278 42.7375 54.626 46.2186C58.0179 51.5899 51.7748 57.833 46.4035 54.4412C42.9223 52.2429 38.3138 54.1518 37.4066 58.1678C36.007 64.3643 27.1779 64.3643 25.7782 58.1678C24.8711 54.1518 20.2625 52.2429 16.7814 54.4412C11.4101 57.833 5.16697 51.5899 8.55882 46.2186C10.7571 42.7375 8.84816 38.1289 4.83221 37.2218C-1.36428 35.8221 -1.36428 26.993 4.83221 25.5934C8.84816 24.6862 10.7571 20.0777 8.55882 16.5965C5.16697 11.2252 11.4101 4.98213 16.7814 8.37397C20.2625 10.5722 24.8711 8.66332 25.7782 4.64737Z" fill="#D9D9D9"/>
</svg>
